<svg width="264" height="192" viewBox="0 0 264 192" fill="none" xmlns="http://www.w3.org/2000/svg">
	<g clip-path="url(#clip0_999_93)">
		<mask id="mask0_999_93" style="mask-type:luminance" maskUnits="userSpaceOnUse" x="0" y="0" width="264" height="192">
			<path d="M264 0H0V192H264V0Z" fill="white" />
		</mask>
		<g mask="url(#mask0_999_93)">
			<path d="M264 0H0V192H264V0Z" fill="#002F00" />
			<g opacity="0.1">
				<path d="M93 199.5C100.732 199.5 107 193.232 107 185.5V98C107 90.268 113.268 84 121 84H135.5C143.232 84 149.5 90.268 149.5 98V159.5C149.5 167.232 155.768 173.5 163.5 173.5H172.25C179.292 173.5 185 167.792 185 160.75V155.5C185 151.358 181.642 148 177.5 148C173.358 148 170 144.642 170 140.5V78.5C170 70.768 163.732 64.5 156 64.5H121C113.268 64.5 107 58.232 107 50.5V25.5C107 19.1487 101.851 14 95.5 14C89.1487 14 84 19.1487 84 25.5V162C84 169.732 77.732 176 70 176H19.75C13.2607 176 8 181.261 8 187.75C8 194.239 13.2607 199.5 19.75 199.5H93Z" fill="url(#paint0_linear_999_93)" fill-opacity="0.78" />
				<path d="M262.75 267C257.089 267 252.5 262.411 252.5 256.75V143.5C252.5 137.149 247.351 132 241 132C234.649 132 229.5 137.149 229.5 143.5V201C229.5 212.046 220.546 221 209.5 221H181.5C176.529 221 172.5 216.971 172.5 212C172.5 207.029 176.529 203 181.5 203H191C201.217 203 209.5 194.717 209.5 184.5V144.25C209.5 126.715 223.715 112.5 241.25 112.5C258.785 112.5 273 126.715 273 144.25V256.75C273 262.411 268.411 267 262.75 267Z" fill="url(#paint1_linear_999_93)" fill-opacity="0.78" />
				<mask id="mask1_999_93" style="mask-type:alpha" maskUnits="userSpaceOnUse" x="8" y="14" width="265" height="253">
					<g opacity="0.1">
						<path d="M93 199.5C100.732 199.5 107 193.232 107 185.5V98C107 90.268 113.268 84 121 84H135.5C143.232 84 149.5 90.268 149.5 98V159.5C149.5 167.232 155.768 173.5 163.5 173.5H172.25C179.292 173.5 185 167.792 185 160.75V155.5C185 151.358 181.642 148 177.5 148C173.358 148 170 144.642 170 140.5V78.5C170 70.768 163.732 64.5 156 64.5H121C113.268 64.5 107 58.232 107 50.5V25.5C107 19.1487 101.851 14 95.5 14C89.1487 14 84 19.1487 84 25.5V162C84 169.732 77.732 176 70 176H19.75C13.2607 176 8 181.261 8 187.75C8 194.239 13.2607 199.5 19.75 199.5H93Z" fill="black" fill-opacity="0.78" />
						<path d="M262.75 267C257.089 267 252.5 262.411 252.5 256.75V143.5C252.5 137.149 247.351 132 241 132C234.649 132 229.5 137.149 229.5 143.5V201C229.5 212.046 220.546 221 209.5 221H181.5C176.529 221 172.5 216.971 172.5 212C172.5 207.029 176.529 203 181.5 203H191C201.217 203 209.5 194.717 209.5 184.5V144.25C209.5 126.715 223.715 112.5 241.25 112.5C258.785 112.5 273 126.715 273 144.25V256.75C273 262.411 268.411 267 262.75 267Z" fill="black" fill-opacity="0.78" />
					</g>
				</mask>
				<g mask="url(#mask1_999_93)">
					<path d="M241 131C234.649 131 229.5 136.149 229.5 142.5C229.5 148.851 234.649 154 241 154C247.351 154 252.5 148.851 252.5 142.5C252.5 136.149 247.351 131 241 131Z" fill="black" fill-opacity="0.25" />
					<path d="M116 108H140C144.971 108 149 103.971 149 99V93C149 88.0294 144.971 84 140 84H116C111.029 84 107 88.0294 107 93V99C107 103.971 111.029 108 116 108Z" fill="black" fill-opacity="0.25" />
					<path d="M116 64L140 64C144.971 64 149 59.9706 149 55V49C149 44.0294 144.971 40 140 40H116C111.029 40 107 44.0294 107 49V55C107 59.9706 111.029 64 116 64Z" fill="black" fill-opacity="0.25" />
					<path d="M51 176H75C79.9706 176 84 171.971 84 167V161C84 156.029 79.9706 152 75 152H51C46.0294 152 42 156.029 42 161V167C42 171.971 46.0294 176 51 176Z" fill="black" fill-opacity="0.25" />
					<path d="M209.5 188C209.5 196.284 202.784 203 194.5 203H176.5C171.529 203 167.5 198.971 167.5 194V179H209.5V188Z" fill="black" fill-opacity="0.25" />
				</g>
			</g>
			<g opacity="0.1">
				<path d="M159.5 155C159.5 147.268 153.232 141 145.5 141H58C50.268 141 44 134.732 44 127V112.5C44 104.768 50.268 98.5 58 98.5H119.5C127.232 98.5 133.5 92.232 133.5 84.5V75.75C133.5 68.7084 127.792 63 120.75 63H115.5C111.358 63 108 66.3579 108 70.5C108 74.6421 104.642 78 100.5 78H38.5C30.768 78 24.5 84.268 24.5 92V127C24.5 134.732 18.232 141 10.5 141H-14.5C-20.8513 141 -26 146.149 -26 152.5C-26 158.851 -20.8513 164 -14.5 164H122C129.732 164 136 170.268 136 178V228.25C136 234.739 141.261 240 147.75 240C154.239 240 159.5 234.739 159.5 228.25V155Z" fill="url(#paint2_linear_999_93)" fill-opacity="0.78" />
				<path d="M227 -14.75C227 -9.08908 222.411 -4.5 216.75 -4.5H103.5C97.1487 -4.5 92 0.648726 92 7C92 13.3513 97.1487 18.5 103.5 18.5H161C172.046 18.5 181 27.4543 181 38.5V66.5C181 71.4706 176.971 75.5 172 75.5C167.029 75.5 163 71.4706 163 66.5V57C163 46.7827 154.717 38.5 144.5 38.5H104.25C86.715 38.5 72.5 24.285 72.5 6.75C72.5 -10.785 86.715 -25 104.25 -25H216.75C222.411 -25 227 -20.4109 227 -14.75Z" fill="url(#paint3_linear_999_93)" fill-opacity="0.78" />
				<mask id="mask2_999_93" style="mask-type:alpha" maskUnits="userSpaceOnUse" x="-26" y="-25" width="253" height="265">
					<g opacity="0.1">
						<path d="M159.5 155C159.5 147.268 153.232 141 145.5 141H58C50.268 141 44 134.732 44 127V112.5C44 104.768 50.268 98.5 58 98.5H119.5C127.232 98.5 133.5 92.232 133.5 84.5V75.75C133.5 68.7084 127.792 63 120.75 63H115.5C111.358 63 108 66.3579 108 70.5C108 74.6421 104.642 78 100.5 78H38.5C30.768 78 24.5 84.268 24.5 92V127C24.5 134.732 18.232 141 10.5 141H-14.5C-20.8513 141 -26 146.149 -26 152.5C-26 158.851 -20.8513 164 -14.5 164H122C129.732 164 136 170.268 136 178V228.25C136 234.739 141.261 240 147.75 240C154.239 240 159.5 234.739 159.5 228.25V155Z" fill="black" fill-opacity="0.78" />
						<path d="M227 -14.75C227 -9.08908 222.411 -4.5 216.75 -4.5H103.5C97.1487 -4.5 92 0.648726 92 7C92 13.3513 97.1487 18.5 103.5 18.5H161C172.046 18.5 181 27.4543 181 38.5V66.5C181 71.4706 176.971 75.5 172 75.5C167.029 75.5 163 71.4706 163 66.5V57C163 46.7827 154.717 38.5 144.5 38.5H104.25C86.715 38.5 72.5 24.285 72.5 6.75C72.5 -10.785 86.715 -25 104.25 -25H216.75C222.411 -25 227 -20.4109 227 -14.75Z" fill="black" fill-opacity="0.78" />
					</g>
				</mask>
				<g mask="url(#mask2_999_93)">
					<path d="M91 7C91 13.3513 96.1487 18.5 102.5 18.5C108.851 18.5 114 13.3513 114 7C114 0.648726 108.851 -4.5 102.5 -4.5C96.1487 -4.5 91 0.648726 91 7Z" fill="black" fill-opacity="0.25" />
					<path d="M68 132V108C68 103.029 63.9706 99 59 99H53C48.0294 99 44 103.029 44 108V132C44 136.971 48.0294 141 53 141H59C63.9706 141 68 136.971 68 132Z" fill="black" fill-opacity="0.25" />
					<path d="M24 132L24 108C24 103.029 19.9706 99 15 99H9C4.02944 99 0 103.029 0 108L0 132C0 136.971 4.02944 141 9 141H15C19.9706 141 24 136.971 24 132Z" fill="black" fill-opacity="0.25" />
					<path d="M136 197V173C136 168.029 131.971 164 127 164H121C116.029 164 112 168.029 112 173V197C112 201.971 116.029 206 121 206H127C131.971 206 136 201.971 136 197Z" fill="black" fill-opacity="0.25" />
					<path d="M148 38.5C156.284 38.5 163 45.2157 163 53.5V71.5C163 76.4706 158.971 80.5 154 80.5H139V38.5H148Z" fill="black" fill-opacity="0.25" />
				</g>
			</g>
			<path d="M208 38.5C200.268 38.5 194 44.768 194 52.5V140C194 147.732 187.732 154 180 154H165.5C157.768 154 151.5 147.732 151.5 140V78.5C151.5 70.768 145.232 64.5 137.5 64.5H128.75C121.708 64.5 116 70.2084 116 77.25V82.5C116 86.6421 119.358 90 123.5 90C127.642 90 131 93.3579 131 97.5V159.5C131 167.232 137.268 173.5 145 173.5H180C187.732 173.5 194 179.768 194 187.5V212.5C194 218.851 199.149 224 205.5 224C211.851 224 217 218.851 217 212.5V76C217 68.268 223.268 62 231 62H281.25C287.739 62 293 56.7393 293 50.25C293 43.7607 287.739 38.5 281.25 38.5H208Z" fill="url(#paint4_linear_999_93)" />
			<path d="M38.25 -29C43.9109 -29 48.5 -24.4109 48.5 -18.75V94.5C48.5 100.851 53.6487 106 60 106C66.3513 106 71.5 100.851 71.5 94.5V37C71.5 25.9543 80.4543 17 91.5 17H119.5C124.471 17 128.5 21.0294 128.5 26C128.5 30.9706 124.471 35 119.5 35H110C99.7827 35 91.5 43.2827 91.5 53.5V93.75C91.5 111.285 77.285 125.5 59.75 125.5C42.215 125.5 28 111.285 28 93.75V-18.75C28 -24.4109 32.5891 -29 38.25 -29Z" fill="url(#paint5_linear_999_93)" />
			<mask id="mask3_999_93" style="mask-type:alpha" maskUnits="userSpaceOnUse" x="28" y="-29" width="265" height="253">
				<path d="M208 38.5C200.268 38.5 194 44.768 194 52.5V140C194 147.732 187.732 154 180 154H165.5C157.768 154 151.5 147.732 151.5 140V78.5C151.5 70.768 145.232 64.5 137.5 64.5H128.75C121.708 64.5 116 70.2084 116 77.25V82.5C116 86.6421 119.358 90 123.5 90C127.642 90 131 93.3579 131 97.5V159.5C131 167.232 137.268 173.5 145 173.5H180C187.732 173.5 194 179.768 194 187.5V212.5C194 218.851 199.149 224 205.5 224C211.851 224 217 218.851 217 212.5V76C217 68.268 223.268 62 231 62H281.25C287.739 62 293 56.7393 293 50.25C293 43.7607 287.739 38.5 281.25 38.5H208Z" fill="black" fill-opacity="0.78" />
				<path d="M38.25 -29C43.9109 -29 48.5 -24.4109 48.5 -18.75V94.5C48.5 100.851 53.6487 106 60 106C66.3513 106 71.5 100.851 71.5 94.5V37C71.5 25.9543 80.4543 17 91.5 17H119.5C124.471 17 128.5 21.0294 128.5 26C128.5 30.9706 124.471 35 119.5 35H110C99.7827 35 91.5 43.2827 91.5 53.5V93.75C91.5 111.285 77.285 125.5 59.75 125.5C42.215 125.5 28 111.285 28 93.75V-18.75C28 -24.4109 32.5891 -29 38.25 -29Z" fill="black" fill-opacity="0.78" />
			</mask>
			<g mask="url(#mask3_999_93)">
				<path d="M60 107C66.3513 107 71.5 101.851 71.5 95.5C71.5 89.1487 66.3513 84 60 84C53.6487 84 48.5 89.1487 48.5 95.5C48.5 101.851 53.6487 107 60 107Z" fill="black" fill-opacity="0.25" />
				<path d="M185 130H161C156.029 130 152 134.029 152 139V145C152 149.971 156.029 154 161 154H185C189.971 154 194 149.971 194 145V139C194 134.029 189.971 130 185 130Z" fill="black" fill-opacity="0.25" />
				<path d="M185 174H161C156.029 174 152 178.029 152 183V189C152 193.971 156.029 198 161 198H185C189.971 198 194 193.971 194 189V183C194 178.029 189.971 174 185 174Z" fill="black" fill-opacity="0.25" />
				<path d="M250 62H226C221.029 62 217 66.0294 217 71V77C217 81.9706 221.029 86 226 86H250C254.971 86 259 81.9706 259 77V71C259 66.0294 254.971 62 250 62Z" fill="black" fill-opacity="0.25" />
				<path d="M91.5 50C91.5 41.7157 98.2157 35 106.5 35H124.5C129.471 35 133.5 39.0294 133.5 44V59H91.5V50Z" fill="black" fill-opacity="0.25" />
			</g>
			<g opacity="0.1">
				<path d="M140.5 40C140.5 47.732 146.768 54 154.5 54H242C249.732 54 256 60.268 256 68V82.5C256 90.232 249.732 96.5 242 96.5H180.5C172.768 96.5 166.5 102.768 166.5 110.5V119.25C166.5 126.292 172.208 132 179.25 132H184.5C188.642 132 192 128.642 192 124.5C192 120.358 195.358 117 199.5 117H261.5C269.232 117 275.5 110.732 275.5 103V68C275.5 60.268 281.768 54 289.5 54H314.5C320.851 54 326 48.8513 326 42.5C326 36.1487 320.851 31 314.5 31H178C170.268 31 164 24.732 164 17V-33.25C164 -39.7393 158.739 -45 152.25 -45C145.761 -45 140.5 -39.7393 140.5 -33.25V40Z" fill="url(#paint6_linear_999_93)" fill-opacity="0.78" />
				<path d="M73 209.75C73 204.089 77.5891 199.5 83.25 199.5H196.5C202.851 199.5 208 194.351 208 188C208 181.649 202.851 176.5 196.5 176.5H139C127.954 176.5 119 167.546 119 156.5V128.5C119 123.529 123.029 119.5 128 119.5C132.971 119.5 137 123.529 137 128.5V138C137 148.217 145.283 156.5 155.5 156.5H195.75C213.285 156.5 227.5 170.715 227.5 188.25C227.5 205.785 213.285 220 195.75 220H83.25C77.5891 220 73 215.411 73 209.75Z" fill="url(#paint7_linear_999_93)" fill-opacity="0.78" />
				<mask id="mask4_999_93" style="mask-type:alpha" maskUnits="userSpaceOnUse" x="73" y="-45" width="253" height="265">
					<g opacity="0.1">
						<path d="M140.5 40C140.5 47.732 146.768 54 154.5 54H242C249.732 54 256 60.268 256 68V82.5C256 90.232 249.732 96.5 242 96.5H180.5C172.768 96.5 166.5 102.768 166.5 110.5V119.25C166.5 126.292 172.208 132 179.25 132H184.5C188.642 132 192 128.642 192 124.5C192 120.358 195.358 117 199.5 117H261.5C269.232 117 275.5 110.732 275.5 103V68C275.5 60.268 281.768 54 289.5 54H314.5C320.851 54 326 48.8513 326 42.5C326 36.1487 320.851 31 314.5 31H178C170.268 31 164 24.732 164 17V-33.25C164 -39.7393 158.739 -45 152.25 -45C145.761 -45 140.5 -39.7393 140.5 -33.25V40Z" fill="black" fill-opacity="0.78" />
						<path d="M73 209.75C73 204.089 77.5891 199.5 83.25 199.5H196.5C202.851 199.5 208 194.351 208 188C208 181.649 202.851 176.5 196.5 176.5H139C127.954 176.5 119 167.546 119 156.5V128.5C119 123.529 123.029 119.5 128 119.5C132.971 119.5 137 123.529 137 128.5V138C137 148.217 145.283 156.5 155.5 156.5H195.75C213.285 156.5 227.5 170.715 227.5 188.25C227.5 205.785 213.285 220 195.75 220H83.25C77.5891 220 73 215.411 73 209.75Z" fill="black" fill-opacity="0.78" />
					</g>
				</mask>
				<g mask="url(#mask4_999_93)">
					<path d="M209 188C209 181.649 203.851 176.5 197.5 176.5C191.149 176.5 186 181.649 186 188C186 194.351 191.149 199.5 197.5 199.5C203.851 199.5 209 194.351 209 188Z" fill="black" fill-opacity="0.25" />
					<path d="M232 63V87C232 91.9706 236.029 96 241 96H247C251.971 96 256 91.9706 256 87V63C256 58.0294 251.971 54 247 54H241C236.029 54 232 58.0294 232 63Z" fill="black" fill-opacity="0.25" />
					<path d="M164 -2V22C164 26.9706 168.029 31 173 31H179C183.971 31 188 26.9706 188 22V-2C188 -6.97056 183.971 -11 179 -11H173C168.029 -11 164 -6.97056 164 -2Z" fill="black" fill-opacity="0.25" />
					<path d="M152 156.5C143.716 156.5 137 149.784 137 141.5V123.5C137 118.529 141.029 114.5 146 114.5H161V156.5H152Z" fill="black" fill-opacity="0.25" />
				</g>
			</g>
		</g>
	</g>
	<defs>
		<linearGradient id="paint0_linear_999_93" x1="185" y1="164" x2="-19" y2="-9.00001" gradientUnits="userSpaceOnUse">
			<stop stop-color="#B9A32A" />
			<stop offset="0.268039" stop-color="#D1B729" />
			<stop offset="1" stop-color="#737373" stop-opacity="0" />
		</linearGradient>
		<linearGradient id="paint1_linear_999_93" x1="273" y1="210.01" x2="126.577" y2="122.158" gradientUnits="userSpaceOnUse">
			<stop stop-color="#B9A32A" />
			<stop offset="0.268039" stop-color="#D1B729" />
			<stop offset="0.456178" stop-color="#B9A63C" stop-opacity="0.742965" />
			<stop offset="0.510046" stop-color="#B2A142" stop-opacity="0.669371" />
			<stop offset="1" stop-color="#737373" stop-opacity="0" />
		</linearGradient>
		<linearGradient id="paint2_linear_999_93" x1="124" y1="63" x2="-49" y2="267" gradientUnits="userSpaceOnUse">
			<stop stop-color="#B9A32A" />
			<stop offset="0.268039" stop-color="#D1B729" />
			<stop offset="1" stop-color="#737373" stop-opacity="0" />
		</linearGradient>
		<linearGradient id="paint3_linear_999_93" x1="170.01" y1="-25" x2="82.1583" y2="121.423" gradientUnits="userSpaceOnUse">
			<stop stop-color="#B9A32A" />
			<stop offset="0.268039" stop-color="#D1B729" />
			<stop offset="0.456178" stop-color="#B9A63C" stop-opacity="0.742965" />
			<stop offset="0.510046" stop-color="#B2A142" stop-opacity="0.669371" />
			<stop offset="1" stop-color="#737373" stop-opacity="0" />
		</linearGradient>
		<linearGradient id="paint4_linear_999_93" x1="116" y1="74" x2="320" y2="247" gradientUnits="userSpaceOnUse">
			<stop stop-color="#B9A32A" />
			<stop offset="0.268039" stop-color="#D1B729" />
			<stop offset="1" stop-color="#737373" stop-opacity="0" />
		</linearGradient>
		<linearGradient id="paint5_linear_999_93" x1="28" y1="27.9904" x2="174.423" y2="115.842" gradientUnits="userSpaceOnUse">
			<stop stop-color="#B9A32A" />
			<stop offset="0.268039" stop-color="#D1B729" />
			<stop offset="0.456178" stop-color="#B9A63C" stop-opacity="0.742965" />
			<stop offset="0.510046" stop-color="#B2A142" stop-opacity="0.669371" />
			<stop offset="1" stop-color="#737373" stop-opacity="0" />
		</linearGradient>
		<linearGradient id="paint6_linear_999_93" x1="176" y1="132" x2="349" y2="-72" gradientUnits="userSpaceOnUse">
			<stop stop-color="#B9A32A" />
			<stop offset="0.268039" stop-color="#D1B729" />
			<stop offset="1" stop-color="#737373" stop-opacity="0" />
		</linearGradient>
		<linearGradient id="paint7_linear_999_93" x1="129.99" y1="220" x2="217.842" y2="73.5767" gradientUnits="userSpaceOnUse">
			<stop stop-color="#B9A32A" />
			<stop offset="0.268039" stop-color="#D1B729" />
			<stop offset="0.456178" stop-color="#B9A63C" stop-opacity="0.742965" />
			<stop offset="0.510046" stop-color="#B2A142" stop-opacity="0.669371" />
			<stop offset="1" stop-color="#737373" stop-opacity="0" />
		</linearGradient>
		<clipPath id="clip0_999_93">
			<rect width="264" height="192" fill="white" />
		</clipPath>
	</defs>
</svg>
